<svg width="27" height="27" viewBox="0 0 27 27" fill="none" xmlns="http://www.w3.org/2000/svg">
<path d="M13.5 0C9.92039 0 6.48422 1.4232 3.95508 3.95402C1.42335 6.48587 0.000724462 9.91951 0 13.5C0 17.079 1.42383 20.5151 3.95508 23.046C6.48422 25.5768 9.92039 27 13.5 27C17.0796 27 20.5158 25.5768 23.0449 23.046C25.5762 20.5151 27 17.079 27 13.5C27 9.92102 25.5762 6.48485 23.0449 3.95402C20.5158 1.4232 17.0796 0 13.5 0Z" fill="url(#paint0_linear_33_3810)"/>
<path d="M6.11119 13.3575C10.0473 11.643 12.6713 10.5127 13.9834 9.96651C17.7338 8.40705 18.5122 8.13621 19.0206 8.12703C19.1324 8.12524 19.3813 8.15287 19.5437 8.28418C19.6787 8.39492 19.7167 8.54469 19.7356 8.64984C19.7525 8.75489 19.7757 8.9943 19.7567 9.18119C19.5542 11.3159 18.6746 16.4961 18.2274 18.8871C18.0397 19.8987 17.6663 20.2379 17.3056 20.271C16.521 20.3432 15.9261 19.753 15.1667 19.2554C13.9792 18.4764 13.3084 17.9916 12.1545 17.2316C10.8214 16.3533 11.6863 15.8704 12.4456 15.0815C12.6439 14.875 16.0991 11.7331 16.1645 11.4481C16.1729 11.4125 16.1813 11.2796 16.1012 11.2096C16.0231 11.1393 15.9071 11.1634 15.8228 11.1824C15.7025 11.2094 13.8062 12.464 10.1274 14.9461C9.58955 15.3161 9.10228 15.4965 8.66353 15.487C8.1826 15.4766 7.25447 15.2144 6.56471 14.9904C5.72096 14.7156 5.04807 14.5702 5.10713 14.1034C5.13666 13.8604 5.47205 13.6117 6.11119 13.3575Z" fill="white"/>
<defs>
<linearGradient id="paint0_linear_33_3810" x1="1350" y1="0" x2="1350" y2="2700" gradientUnits="userSpaceOnUse">
<stop stop-color="#2AABEE"/>
<stop offset="1" stop-color="#229ED9"/>
</linearGradient>
</defs>
</svg>
