<svg width="28" height="27" viewBox="0 0 28 27" fill="none" xmlns="http://www.w3.org/2000/svg">
<g clip-path="url(#clip0_33_3813)">
<path d="M27.9004 13.5C27.9004 6.0442 21.8562 0 14.4004 0C6.94459 0 0.900391 6.0442 0.900391 13.5C0.900391 20.2382 5.83717 25.8233 12.291 26.836V17.4023H8.86328V13.5H12.291V10.5258C12.291 7.14234 14.3065 5.27344 17.3902 5.27344C18.8672 5.27344 20.4121 5.53711 20.4121 5.53711V8.85938H18.7098C17.0328 8.85938 16.5098 9.90003 16.5098 10.9677V13.5H20.2539L19.6554 17.4023H16.5098V26.836C22.9636 25.8233 27.9004 20.2383 27.9004 13.5Z" fill="#1877F2"/>
<path d="M19.6554 17.4023L20.2539 13.5H16.5098V10.9677C16.5098 9.89993 17.0328 8.85938 18.7098 8.85938H20.4121V5.53711C20.4121 5.53711 18.8672 5.27344 17.3901 5.27344C14.3065 5.27344 12.291 7.14234 12.291 10.5258V13.5H8.86328V17.4023H12.291V26.836C12.9888 26.9453 13.6941 27.0002 14.4004 27C15.1067 27.0002 15.812 26.9453 16.5098 26.836V17.4023H19.6554Z" fill="white"/>
</g>
<defs>
<clipPath id="clip0_33_3813">
<rect width="27" height="27" fill="white" transform="translate(0.900391)"/>
</clipPath>
</defs>
</svg>
