<svg width="28" height="27" viewBox="0 0 28 27" fill="none" xmlns="http://www.w3.org/2000/svg">
<g clip-path="url(#clip0_33_3816)">
<path d="M21.5723 0H7.22852C3.73359 0 0.900391 2.8332 0.900391 6.32812V20.6719C0.900391 24.1668 3.73359 27 7.22852 27H21.5723C25.0672 27 27.9004 24.1668 27.9004 20.6719V6.32812C27.9004 2.8332 25.0672 0 21.5723 0Z" fill="url(#paint0_radial_33_3816)"/>
<path d="M21.5723 0H7.22852C3.73359 0 0.900391 2.8332 0.900391 6.32812V20.6719C0.900391 24.1668 3.73359 27 7.22852 27H21.5723C25.0672 27 27.9004 24.1668 27.9004 20.6719V6.32812C27.9004 2.8332 25.0672 0 21.5723 0Z" fill="url(#paint1_radial_33_3816)"/>
<path d="M14.4013 2.95312C11.537 2.95312 11.1775 2.96568 10.0525 3.01683C8.92973 3.0683 8.16329 3.24601 7.49271 3.50684C6.79894 3.7762 6.21053 4.13659 5.62434 4.723C5.03761 5.3093 4.67723 5.89771 4.40702 6.59116C4.14545 7.26195 3.96753 8.0287 3.91701 9.151C3.8667 10.276 3.85352 10.6357 3.85352 13.5001C3.85352 16.3645 3.86617 16.7229 3.91722 17.8478C3.9689 18.9707 4.14661 19.7371 4.40723 20.4077C4.6768 21.1014 5.03719 21.6899 5.6236 22.2761C6.20969 22.8628 6.7981 23.224 7.49134 23.4934C8.16244 23.7542 8.92899 23.9319 10.0516 23.9834C11.1766 24.0345 11.5359 24.0471 14.4001 24.0471C17.2647 24.0471 17.6231 24.0345 18.748 23.9834C19.8708 23.9319 20.6381 23.7542 21.3092 23.4934C22.0027 23.224 22.5903 22.8628 23.1762 22.2761C23.763 21.6899 24.1232 21.1014 24.3936 20.408C24.6528 19.7371 24.8308 18.9705 24.8836 17.8481C24.9341 16.7231 24.9473 16.3645 24.9473 13.5001C24.9473 10.6357 24.9341 10.2762 24.8836 9.15121C24.8308 8.02839 24.6528 7.26205 24.3936 6.59148C24.1232 5.89771 23.763 5.3093 23.1762 4.723C22.5896 4.13638 22.0029 3.77599 21.3086 3.50694C20.6362 3.24601 19.8694 3.06819 18.7465 3.01683C17.6215 2.96568 17.2633 2.95312 14.3981 2.95312H14.4013ZM13.4552 4.85378C13.736 4.85336 14.0494 4.85378 14.4013 4.85378C17.2175 4.85378 17.5512 4.8639 18.6632 4.91442C19.6915 4.96146 20.2497 5.13327 20.6215 5.27766C21.1137 5.46877 21.4646 5.69732 21.8335 6.06656C22.2027 6.4357 22.4311 6.78723 22.6227 7.27945C22.7671 7.6507 22.9391 8.20884 22.986 9.23716C23.0365 10.349 23.0475 10.6829 23.0475 13.4977C23.0475 16.3124 23.0365 16.6464 22.986 17.7582C22.9389 18.7865 22.7671 19.3447 22.6227 19.716C22.4316 20.2082 22.2027 20.5587 21.8335 20.9276C21.4644 21.2968 21.1139 21.5252 20.6215 21.7164C20.2501 21.8615 19.6915 22.0328 18.6632 22.0799C17.5514 22.1304 17.2175 22.1414 14.4013 22.1414C11.5851 22.1414 11.2513 22.1304 10.1396 22.0799C9.11124 22.0324 8.5531 21.8606 8.181 21.7162C7.68889 21.525 7.33725 21.2966 6.96811 20.9274C6.59897 20.5583 6.37053 20.2076 6.17889 19.7152C6.0345 19.3438 5.86248 18.7857 5.81566 17.7574C5.76514 16.6455 5.75501 16.3116 5.75501 13.495C5.75501 10.6785 5.76514 10.3464 5.81566 9.23453C5.8627 8.20621 6.0345 7.64807 6.17889 7.27629C6.37011 6.78407 6.59897 6.43254 6.96822 6.0634C7.33747 5.69426 7.68889 5.46571 8.18111 5.27418C8.55289 5.12916 9.11124 4.95777 10.1396 4.91052C11.1125 4.86654 11.4896 4.85336 13.4552 4.85114V4.85378ZM20.0313 6.60498C19.3325 6.60498 18.7656 7.17135 18.7656 7.87018C18.7656 8.56891 19.3325 9.13581 20.0313 9.13581C20.73 9.13581 21.2969 8.56891 21.2969 7.87018C21.2969 7.17145 20.73 6.60456 20.0313 6.60456V6.60498ZM14.4013 8.08376C11.4102 8.08376 8.9851 10.5089 8.9851 13.5001C8.9851 16.4913 11.4102 18.9153 14.4013 18.9153C17.3925 18.9153 19.8168 16.4913 19.8168 13.5001C19.8168 10.509 17.3923 8.08376 14.4011 8.08376H14.4013ZM14.4013 9.98441C16.3429 9.98441 17.917 11.5583 17.917 13.5001C17.917 15.4417 16.3429 17.0158 14.4013 17.0158C12.4598 17.0158 10.8858 15.4417 10.8858 13.5001C10.8858 11.5583 12.4597 9.98441 14.4013 9.98441Z" fill="white"/>
</g>
<defs>
<radialGradient id="paint0_radial_33_3816" cx="0" cy="0" r="1" gradientUnits="userSpaceOnUse" gradientTransform="translate(8.07227 29.0795) rotate(-90) scale(26.759 24.888)">
<stop stop-color="#FFDD55"/>
<stop offset="0.1" stop-color="#FFDD55"/>
<stop offset="0.5" stop-color="#FF543E"/>
<stop offset="1" stop-color="#C837AB"/>
</radialGradient>
<radialGradient id="paint1_radial_33_3816" cx="0" cy="0" r="1" gradientUnits="userSpaceOnUse" gradientTransform="translate(-3.62221 1.94495) rotate(78.681) scale(11.9614 49.3054)">
<stop stop-color="#3771C8"/>
<stop offset="0.128" stop-color="#3771C8"/>
<stop offset="1" stop-color="#6600FF" stop-opacity="0"/>
</radialGradient>
<clipPath id="clip0_33_3816">
<rect width="27" height="27" fill="white" transform="translate(0.900391)"/>
</clipPath>
</defs>
</svg>
