<svg width="28" height="27" viewBox="0 0 28 27" fill="none" xmlns="http://www.w3.org/2000/svg">
<g clip-path="url(#clip0_33_3821)">
<path d="M21.5723 0H7.22852C3.73359 0 0.900391 2.8332 0.900391 6.32812V20.6719C0.900391 24.1668 3.73359 27 7.22852 27H21.5723C25.0672 27 27.9004 24.1668 27.9004 20.6719V6.32812C27.9004 2.8332 25.0672 0 21.5723 0Z" fill="white"/>
<path d="M21.5723 0H7.22852C3.73359 0 0.900391 2.8332 0.900391 6.32812V20.6719C0.900391 24.1668 3.73359 27 7.22852 27H21.5723C25.0672 27 27.9004 24.1668 27.9004 20.6719V6.32812C27.9004 2.8332 25.0672 0 21.5723 0Z" fill="#0A66C2"/>
<path d="M20.3821 22.959H23.4691C23.581 22.959 23.6883 22.9145 23.7674 22.8354C23.8465 22.7563 23.891 22.6491 23.891 22.5372L23.8926 16.0148C23.8926 12.6057 23.158 9.98536 19.1741 9.98536C17.6597 9.92904 16.2315 10.7097 15.4609 12.0133C15.4571 12.0196 15.4514 12.0246 15.4445 12.0273C15.4377 12.0301 15.4302 12.0306 15.4231 12.0286C15.4159 12.0267 15.4097 12.0225 15.4052 12.0167C15.4007 12.0108 15.3982 12.0037 15.3981 11.9963V10.722C15.3981 10.6101 15.3537 10.5028 15.2746 10.4236C15.1954 10.3445 15.0881 10.3001 14.9763 10.3001H12.0466C11.9348 10.3001 11.8275 10.3445 11.7483 10.4236C11.6692 10.5028 11.6248 10.6101 11.6248 10.722V22.5366C11.6248 22.6484 11.6692 22.7558 11.7483 22.8349C11.8275 22.914 11.9348 22.9584 12.0466 22.9584H15.1335C15.2454 22.9584 15.3527 22.914 15.4318 22.8349C15.5109 22.7558 15.5554 22.6484 15.5554 22.5366V16.6964C15.5554 15.0451 15.8686 13.4459 17.9159 13.4459C19.934 13.4459 19.9602 15.3355 19.9602 16.8034V22.5371C19.9602 22.649 20.0046 22.7563 20.0837 22.8354C20.1629 22.9145 20.2702 22.959 20.3821 22.959ZM4.9082 6.28889C4.9082 7.54017 5.93832 8.56976 7.1897 8.56976C8.44077 8.56965 9.47025 7.53943 9.47025 6.28836C9.47004 5.03729 8.44046 4.00781 7.18928 4.00781C5.93779 4.00781 4.9082 5.03761 4.9082 6.28889ZM5.64216 22.959H8.73313C8.84502 22.959 8.95233 22.9145 9.03144 22.8354C9.11056 22.7563 9.15501 22.649 9.15501 22.5371V10.722C9.15501 10.6101 9.11056 10.5028 9.03144 10.4236C8.95233 10.3445 8.84502 10.3001 8.73313 10.3001H5.64216C5.53027 10.3001 5.42297 10.3445 5.34385 10.4236C5.26473 10.5028 5.22029 10.6101 5.22029 10.722V22.5371C5.22029 22.649 5.26473 22.7563 5.34385 22.8354C5.42297 22.9145 5.53027 22.959 5.64216 22.959Z" fill="white"/>
</g>
<defs>
<clipPath id="clip0_33_3821">
<rect width="27" height="27" fill="white" transform="translate(0.900391)"/>
</clipPath>
</defs>
</svg>
