<svg width="40" height="32" viewBox="0 0 40 32" fill="none" xmlns="http://www.w3.org/2000/svg">
<path opacity="0.2" d="M0 32V23.5789C0 21.0214 0.433483 18.308 1.30045 15.4386C2.19731 12.538 3.48281 9.74659 5.15695 7.06433C6.86099 4.35088 8.90882 1.9961 11.3004 0L17.0404 4.8655C15.157 7.67252 13.5127 10.6043 12.1076 13.6608C10.7324 16.6862 10.0448 19.9298 10.0448 23.3918V32H0ZM22.9596 32V23.5789C22.9596 21.0214 23.3931 18.308 24.2601 15.4386C25.157 12.538 26.4425 9.74659 28.1166 7.06433C29.8206 4.35088 31.8685 1.9961 34.2601 0L40 4.8655C38.1166 7.67252 36.4723 10.6043 35.0673 13.6608C33.6921 16.6862 33.0045 19.9298 33.0045 23.3918V32H22.9596Z" fill="#727272"/>
</svg>
